<svg width="160" height="45" viewBox="0 0 160 45" fill="none" xmlns="http://www.w3.org/2000/svg">
<rect x="0.5" y="0.5" width="159" height="44" rx="5.5" fill="#FAFAFA" stroke="#282828"/>
<path d="M22.1 17.046V16.122H30.654V17.186C30.654 18.194 30.654 19.216 30.304 20.504L29.184 20.378C29.52 19.09 29.52 18.152 29.52 17.186V17.046H22.1ZM32.068 22.268H20.77V21.33H25.404V18.922H26.552V21.33H32.068V22.268ZM26.37 23.416C29.044 23.416 30.752 24.27 30.752 25.726C30.752 27.14 29.044 28.022 26.37 28.022C23.696 28.022 22.002 27.14 22.002 25.726C22.002 24.27 23.696 23.416 26.37 23.416ZM26.37 27.126C28.344 27.126 29.604 26.622 29.604 25.726C29.604 24.83 28.344 24.298 26.37 24.298C24.41 24.298 23.15 24.83 23.15 25.726C23.15 26.608 24.41 27.126 26.37 27.126ZM42.9449 19.496V22.604H41.7969V15.464H42.9449V18.544H44.8069V19.496H42.9449ZM39.5429 16.276C39.5429 19.468 37.3309 21.722 33.6349 22.73L33.1869 21.82C36.3089 20.98 38.0869 19.356 38.3109 17.214H33.7469V16.276H39.5429ZM42.9449 23.192V27.854H35.0349V23.192H42.9449ZM41.8109 26.93V24.116H36.1689V26.93H41.8109ZM55.8938 20.784C54.0038 20.448 52.1278 19.412 51.3438 17.956C50.5598 19.454 48.7258 20.476 46.7798 20.812L46.3318 19.916C48.5578 19.58 50.7558 18.096 50.7558 16.416V15.8H51.9318V16.416C51.9318 18.068 54.1438 19.552 56.3278 19.888L55.8938 20.784ZM57.0278 22.8H52.0018V25.334H50.8398V22.8H45.6318V21.876H57.0278V22.8ZM55.7818 26.818V27.756H47.0878V24.144H48.2358V26.818H55.7818Z" fill="#282828"/>
<path d="M132.999 24.3077L129.191 20.5H136.807L132.999 24.3077Z" fill="#282828"/>
</svg>
