<svg width="1186" height="45" viewBox="0 0 1186 45" fill="none" xmlns="http://www.w3.org/2000/svg">
<rect width="1186" height="45" rx="6" fill="#F4F4F4"/>
<path d="M31 28C32.9333 28 34.5833 27.3176 35.95 25.9529C37.3167 24.5881 38 22.9372 38 21C38 19.0667 37.3167 17.4167 35.95 16.05C34.5833 14.6833 32.9333 14 31 14C29.0628 14 27.4119 14.6833 26.0471 16.05C24.6824 17.4167 24 19.0667 24 21C24 22.9372 24.6824 24.5881 26.0471 25.9529C27.4119 27.3176 29.0628 28 31 28ZM31 29C29.891 29 28.8516 28.7914 27.8817 28.3741C26.9119 27.9567 26.0644 27.3856 25.3394 26.6606C24.6144 25.9356 24.0433 25.0881 23.6259 24.1183C23.2086 23.1484 23 22.109 23 21C23 19.8949 23.2086 18.8574 23.6259 17.8875C24.0433 16.9176 24.6144 16.0692 25.3394 15.3423C26.0644 14.6154 26.9119 14.0433 27.8817 13.626C28.8516 13.2087 29.891 13 31 13C32.1051 13 33.1426 13.2087 34.1125 13.626C35.0824 14.0433 35.9308 14.6154 36.6577 15.3423C37.3846 16.0692 37.9567 16.9176 38.374 17.8875C38.7913 18.8574 39 19.8949 39 21C39 22.0154 38.8218 22.9724 38.4654 23.8712C38.109 24.7699 37.616 25.5788 36.9865 26.2981L41 30.3116L40.3058 31L36.2923 26.9923C35.5731 27.6218 34.7641 28.1138 33.8654 28.4683C32.9667 28.8228 32.0115 29 31 29Z" fill="#282828"/>
<path d="M55.974 17.746V16.808H64.052V16.822H64.584V18.068C64.584 19.664 64.57 21.47 64.094 24.186L62.946 24.06C63.45 21.498 63.45 19.622 63.45 18.068V17.746H55.974ZM66.11 26.202H54.756V25.25H66.11V26.202ZM68.6289 16.626V15.744H77.1269V18.628H69.7909V19.804H77.3929V20.686H68.6569V17.774H75.9929V16.626H68.6289ZM78.5829 22.618H73.4589V24.172H72.3109V22.618H67.1869V21.694H78.5829V22.618ZM77.1269 23.416V27.868H68.6989V23.416H69.8469V24.802H75.9929V23.416H77.1269ZM69.8469 25.67V26.972H75.9929V25.67H69.8469ZM80.2338 22.002V16.43H85.9598V17.522H88.8438V15.492H90.0058V22.912H88.8438V20.924H85.9598V22.002H80.2338ZM81.3678 17.354V21.092H84.8398V17.354H81.3678ZM85.9598 20H88.8438V18.446H85.9598V20ZM85.8478 23.29C88.4378 23.29 90.0338 24.144 90.0338 25.656C90.0338 27.154 88.4378 28.022 85.8478 28.022C83.2718 28.022 81.6758 27.154 81.6758 25.656C81.6758 24.144 83.2718 23.29 85.8478 23.29ZM85.8478 27.126C87.7658 27.126 88.8998 26.608 88.8998 25.656C88.8998 24.704 87.7658 24.186 85.8478 24.186C83.9298 24.186 82.8238 24.704 82.8238 25.656C82.8238 26.608 83.9298 27.126 85.8478 27.126ZM97.7887 20.042C95.0307 20.042 93.3787 19.286 93.3787 17.872C93.3787 16.458 95.0307 15.688 97.7887 15.688C100.547 15.688 102.199 16.458 102.199 17.872C102.199 19.286 100.547 20.042 97.7887 20.042ZM97.7887 16.556C95.7027 16.556 94.5547 17.032 94.5547 17.872C94.5547 18.712 95.7027 19.188 97.7887 19.188C99.8747 19.188 101.023 18.712 101.023 17.872C101.023 17.032 99.8747 16.556 97.7887 16.556ZM103.473 21.82H92.1047V20.896H103.473V21.82ZM102.395 27V27.896H93.5187V24.886H100.883V23.766H93.4767V22.898H102.017V25.726H94.6387V27H102.395ZM117.62 22.646H116.472V19.65H113.742V18.712H116.472V15.478H117.62V22.646ZM113.728 16.276C113.728 19.454 111.488 21.722 107.904 22.73L107.428 21.834C110.466 20.98 112.272 19.356 112.51 17.214H108.058V16.276H113.728ZM117.62 23.178V27.854H109.514V23.178H117.62ZM116.5 26.93V24.088H110.648V26.93H116.5ZM130.345 23.08H129.239V19.692H127.643V22.996H126.551V15.702H127.643V18.754H129.239V15.492H130.345V23.08ZM125.417 22.296C124.241 21.806 123.387 20.896 122.939 19.818C122.491 21.008 121.609 22.072 120.377 22.618L119.761 21.736C121.385 20.994 122.379 19.342 122.379 17.914V16.22H123.485V17.914C123.485 19.328 124.423 20.798 126.033 21.428L125.417 22.296ZM130.345 23.766V28.036H129.197V24.69H121.903V23.766H130.345ZM142.846 28.022H141.74V21.708H140.13V27.42H139.052V15.758H140.13V20.77H141.74V15.464H142.846V28.022ZM138.422 17.62V18.558H132.192V17.62H134.74V15.842H135.874V17.62H138.422ZM135.314 19.398C136.868 19.398 138.002 20.574 138.002 22.254C138.002 23.962 136.868 25.124 135.314 25.124C133.76 25.124 132.626 23.962 132.626 22.254C132.626 20.574 133.76 19.398 135.314 19.398ZM135.314 24.172C136.28 24.172 136.98 23.374 136.98 22.254C136.98 21.162 136.28 20.364 135.314 20.364C134.306 20.364 133.648 21.134 133.648 22.254C133.648 23.374 134.348 24.172 135.314 24.172ZM148.062 20.672C150.246 20.336 152.416 18.908 152.416 17.256V17.186H148.454V16.262H157.624V17.186H153.69V17.256C153.69 18.908 155.86 20.336 158.072 20.672L157.624 21.582C155.678 21.246 153.802 20.21 153.06 18.712C152.276 20.21 150.456 21.246 148.496 21.582L148.062 20.672ZM153.606 23.57V28.036H152.458V23.57H147.39V22.632H158.73L158.744 23.57H153.606ZM170.503 28.036H169.411V15.478H170.503V28.036ZM167.941 15.758V27.42H166.863V20.938H164.791V19.986H166.863V15.758H167.941ZM163.559 19.02C163.559 21.036 164.511 23.164 166.149 24.172L165.491 25.068C164.301 24.34 163.461 23.01 163.013 21.484C162.565 23.178 161.655 24.564 160.409 25.348L159.695 24.48C161.417 23.472 162.453 21.232 162.453 19.062V16.668H163.559V19.02ZM183.69 26.426H172.28V25.474H175.08V22.086C174.016 21.54 173.4 20.63 173.4 19.496C173.4 17.55 175.304 16.276 177.964 16.276C180.638 16.276 182.528 17.55 182.528 19.496C182.528 20.63 181.94 21.526 180.876 22.072V25.474H183.69V26.426ZM177.964 17.172C175.948 17.172 174.506 18.096 174.506 19.496C174.506 20.896 175.948 21.82 177.964 21.82C179.98 21.82 181.436 20.896 181.436 19.496C181.436 18.096 179.98 17.172 177.964 17.172ZM179.728 25.474V22.52C179.126 22.646 178.538 22.716 177.964 22.716C177.348 22.716 176.774 22.646 176.228 22.52V25.474H179.728Z" fill="#B8B8B8"/>
</svg>
